HIERARCHY
ROOT Hips
{
     OFFSET 6.21430 96.45670 5.10493
     CHANNELS 6 Xposition Yposition Zposition Zrotation Xrotation Yrotation
     JOINT Spine
     {
          OFFSET 0.00000 11.89050 0.00000
          CHANNELS 3 Zrotation Xrotation Yrotation
          JOINT Spine1
          {
               OFFSET 0.00000 25.65740 0.12766
               CHANNELS 3 Zrotation Xrotation Yrotation
               JOINT HEad
               {
                    OFFSET 0.00000 8.73416 0.01134
                    CHANNELS 3 Zrotation Xrotation Yrotation
                    End Site
                    {
                         OFFSET -0.29000 12.77420 2.51395
                    }
               }
               JOINT LeftShoulder1
               {
                    OFFSET 8.99000 -0.36225 -0.22000
                    CHANNELS 3 Zrotation Xrotation Yrotation
                    JOINT LeftArm
                    {
                         OFFSET 10.28270 -0.00338 0.32212
                         CHANNELS 3 Zrotation Xrotation Yrotation
                         JOINT LeftForeArm
                         {
                              OFFSET 32.76690 0.09914 -1.42434
                              CHANNELS 3 Zrotation Xrotation Yrotation
                              JOINT LeftHand
                              {
                                   OFFSET 27.56430 0.08536 1.02216
                                   CHANNELS 3 Zrotation Xrotation Yrotation
                                   End Site
                                   {
                                        OFFSET 16.74430 -0.60000 1.50291
                                   }
                              }
                         }
                    }
               }
               JOINT RightShoulder
               {
                    OFFSET -8.99000 -0.36225 -0.22000
                    CHANNELS 3 Zrotation Xrotation Yrotation
                    JOINT RightArm
                    {
                         OFFSET -10.28270 -0.00338 0.32212
                         CHANNELS 3 Zrotation Xrotation Yrotation
                         JOINT RightForeArm
                         {
                              OFFSET -32.89710 0.09914 -1.42434
                              CHANNELS 3 Zrotation Xrotation Yrotation
                              JOINT RightHand
                              {
                                   OFFSET -27.49210 0.08536 1.02216
                                   CHANNELS 3 Zrotation Xrotation Yrotation
                                   End Site
                                   {
                                        OFFSET -16.63120 -0.60000 1.50291
                                   }
                              }
                         }
                    }
               }
          }
     }
     JOINT LeftUpLeg
     {
          OFFSET 8.94580 -8.66707 0.10165
          CHANNELS 3 Zrotation Xrotation Yrotation
          JOINT LeftLeg
          {
               OFFSET 0.00000 -44.42270 1.37270
               CHANNELS 3 Zrotation Xrotation Yrotation
               JOINT LeftFoot
               {
                    OFFSET -0.25355 -42.09240 -1.46059
                    CHANNELS 3 Zrotation Xrotation Yrotation
                    JOINT LeftToes
                    {
                         OFFSET -0.04000 -4.41509 8.49910
                         CHANNELS 3 Zrotation Xrotation Yrotation
                         End Site
                         {
                              OFFSET 0.08000 -0.04745 9.77979
                         }
                    }
               }
          }
     }
     JOINT RightUpLeg
     {
          OFFSET -8.94580 -8.66707 0.10165
          CHANNELS 3 Zrotation Xrotation Yrotation
          JOINT RightLeg
          {
               OFFSET 0.00000 -44.42270 1.37270
               CHANNELS 3 Zrotation Xrotation Yrotation
               JOINT RightFoot
               {
                    OFFSET 0.25355 -42.09240 -1.46059
                    CHANNELS 3 Zrotation Xrotation Yrotation
                    JOINT RightToes
                    {
                         OFFSET 0.04000 -4.41509 8.49910
                         CHANNELS 3 Zrotation Xrotation Yrotation
                         End Site
                         {
                              OFFSET -0.08000 -0.13745 9.77979
                         }
                    }
               }
          }
     }
}
MOTION
Frames: 8
Frame Time: 0.01667
1.60961 92.85250 11.77500 -4.61207 -11.71030 -22.24120 -5.09895 10.31390 -1.95231 -3.62161 19.92440 -3.10380 2.00985 -4.46077 10.94520 0.00000 0.00000 0.00000 -87.17190 -48.21830 -76.82710 -19.10480 34.13620 -83.64780 18.07590 7.24966 -13.09320 18.99600 0.88261 1.70541 82.96690 -1.29503 71.21300 8.91460 31.43890 107.59700 17.96370 11.33780 4.54474 26.38310 -15.50990 -14.45420 -35.65340 19.47750 80.20360 1.23064 14.72290 -0.34326 0.68899 -33.86240 -60.60460 -18.09660 2.19338 9.65486 37.18100 21.44140 -46.78470 -46.25750 -4.96755 1.00600 15.32640 -61.51300 19.07420 
1.58249 93.06510 11.06320 -4.41103 -11.62260 -22.03720 -5.48533 10.24320 -1.80909 -3.69501 19.79010 -3.03327 2.01795 -4.32064 10.69830 0.00000 0.00000 0.00000 -87.43600 -47.58440 -76.96460 -18.50720 34.04740 -83.97560 17.98560 7.28637 -12.94620 18.98060 0.88818 1.73395 82.93990 -1.25314 71.13730 8.86261 31.22960 107.65000 18.15710 11.34780 4.51390 25.82220 -15.41320 -14.65770 -36.30430 20.57930 80.11430 1.27008 15.45240 -0.36337 0.80110 -33.77630 -59.97840 -17.98640 1.95488 9.57159 36.97920 20.81110 -46.55730 -46.59780 -4.62459 1.16635 15.42630 -61.37780 19.36930 
1.59683 93.19440 10.44260 -4.32035 -11.56190 -21.83670 -5.53730 10.16420 -1.67241 -3.75888 19.68830 -2.89152 2.14617 -4.24921 10.46580 0.00000 0.00000 0.00000 -87.83560 -46.85260 -77.13960 -18.04560 34.01710 -84.19580 17.92550 7.31850 -12.79710 19.11170 0.88689 1.70814 82.69350 -1.12406 70.99270 8.69572 30.83530 107.75600 18.35190 11.36580 4.53074 25.36210 -14.93300 -15.52100 -36.50720 20.44190 79.60840 1.18547 15.78580 -0.35182 1.11163 -33.17320 -59.25920 -17.82230 1.69161 9.56818 36.86950 20.40570 -46.52930 -46.75550 -4.38036 1.27908 15.70460 -61.31830 19.95470 
1.65393 93.25520 9.89795 -4.34201 -11.52470 -21.61620 -5.28610 10.09200 -1.55511 -3.79716 19.62670 -2.70277 2.37381 -4.24254 10.24230 0.00000 0.00000 0.00000 -88.39870 -46.05860 -77.36980 -17.72890 34.07690 -84.28100 17.94290 7.33698 -12.65940 19.37820 0.89550 1.70856 82.24750 -1.02456 70.78860 8.49859 30.37500 107.86200 18.43760 11.38720 4.61911 25.00810 -14.08400 -16.83990 -36.19250 19.20490 78.79920 1.09024 15.63700 -0.33012 1.43411 -32.44580 -58.72650 -17.60030 1.40186 9.57730 36.83960 20.24940 -46.62940 -46.63890 -4.22219 1.34462 16.13050 -61.25750 20.82770 
1.74862 93.26700 9.41134 -4.45235 -11.52190 -21.35660 -4.81590 10.04240 -1.46576 -3.80582 19.61910 -2.50043 2.62882 -4.25433 9.97819 0.00000 0.00000 0.00000 -89.15490 -45.25130 -77.68990 -17.45760 34.25630 -84.29150 18.04950 7.34269 -12.51800 19.70680 0.92040 1.77417 81.72900 -1.06246 70.55420 8.36159 30.01150 107.91400 18.32900 11.40660 4.78791 24.75480 -12.89550 -18.28870 -35.34670 17.14100 77.76300 1.08986 15.06190 -0.32113 1.62445 -31.95490 -58.57060 -17.35790 1.12103 9.54502 36.89610 20.29570 -46.72940 -46.24750 -4.14571 1.36387 16.47780 -61.03650 21.67930 
1.86465 93.25130 8.96374 -4.60499 -11.55230 -21.05100 -4.25011 10.02600 -1.40294 -3.79886 19.67210 -2.30645 2.85697 -4.28939 9.61827 0.00000 0.00000 0.00000 -90.12460 -44.48480 -78.15130 -17.12030 34.59490 -84.32790 18.21940 7.34715 -12.32580 20.01400 0.95088 1.86635 81.28590 -1.26640 70.33310 8.30618 29.83510 107.92500 18.05740 11.41770 4.98993 24.58630 -11.47670 -19.44120 -34.05290 14.68030 76.45670 1.23104 14.25900 -0.33559 1.63049 -31.86710 -58.80890 -17.14360 0.87565 9.43033 37.03860 20.46530 -46.71050 -45.65480 -4.14296 1.34338 16.51610 -60.54160 22.16240 
1.97869 93.22770 8.53486 -4.73553 -11.59820 -20.70000 -3.72458 10.04490 -1.36138 -3.80412 19.77620 -2.13867 3.05293 -4.39972 9.16095 0.00000 0.00000 0.00000 -91.16230 -43.74980 -78.71600 -16.62170 34.98830 -84.49050 18.38020 7.36854 -12.03790 20.23430 0.97720 1.95092 81.03740 -1.62377 70.16620 8.28515 29.83850 107.98200 17.77690 11.41250 5.10010 24.41640 -10.14930 -19.88270 -32.50990 12.57970 74.80900 1.38690 13.47410 -0.35111 1.46410 -32.16830 -59.36140 -17.00550 0.67019 9.20606 37.24360 20.65850 -46.56500 -45.03100 -4.16971 1.30934 16.23500 -59.85320 22.18140 
2.07100 93.21060 8.10624 -4.78395 -11.64000 -20.30510 -3.34305 10.09240 -1.33914 -3.84838 19.90840 -2.01772 3.24050 -4.59666 8.65253 0.00000 0.00000 0.00000 -91.98630 -42.97860 -79.25150 -15.92530 35.19130 -84.81130 18.44780 7.41626 -11.67290 20.35420 1.00259 2.04547 81.00190 -2.10448 70.06460 8.24716 29.95410 108.16300 17.59630 11.38540 5.02415 24.14060 -9.20933 -19.44590 -30.89970 11.39340 72.83960 1.44333 12.96540 -0.35206 1.16415 -32.75100 -60.13600 -16.97520 0.49121 8.87946 37.47630 20.79000 -46.38650 -44.56920 -4.16818 1.29336 15.79370 -59.16390 21.86970 
